<mxfile host="app.diagrams.net" agent="Mozilla/5.0 (Windows NT 10.0; Win64; x64) AppleWebKit/537.36 (KHTML, like Gecko) Chrome/135.0.0.0 Safari/537.36" version="26.2.4">
  <diagram name="GeneralPlan" id="aJayt57O8sXawXul8Umm">
    <mxGraphModel dx="2380" dy="4538" grid="1" gridSize="10" guides="1" tooltips="1" connect="1" arrows="1" fold="1" page="1" pageScale="1" pageWidth="2339" pageHeight="3300" math="0" shadow="0">
      <root>
        <mxCell id="0" />
        <mxCell id="1" parent="0" />
        <mxCell id="BCkx3oVRZh2mKSqZO-g1-99" value="" style="rounded=1;whiteSpace=wrap;html=1;" parent="1" vertex="1">
          <mxGeometry x="570" y="-2500" width="470" height="360" as="geometry" />
        </mxCell>
        <mxCell id="BCkx3oVRZh2mKSqZO-g1-98" value="" style="rounded=1;whiteSpace=wrap;html=1;" parent="1" vertex="1">
          <mxGeometry x="1853.25" y="-2610" width="411.5" height="600" as="geometry" />
        </mxCell>
        <mxCell id="BCkx3oVRZh2mKSqZO-g1-95" value="" style="ellipse;shape=cloud;whiteSpace=wrap;html=1;" parent="1" vertex="1">
          <mxGeometry x="870" y="-2890" width="840" height="360" as="geometry" />
        </mxCell>
        <mxCell id="BCkx3oVRZh2mKSqZO-g1-92" value="" style="ellipse;shape=cloud;whiteSpace=wrap;html=1;" parent="1" vertex="1">
          <mxGeometry x="310" y="-2870" width="420" height="340" as="geometry" />
        </mxCell>
        <mxCell id="BCkx3oVRZh2mKSqZO-g1-59" value="" style="rounded=1;whiteSpace=wrap;html=1;" parent="1" vertex="1">
          <mxGeometry x="1188.75" y="-2130" width="510" height="530" as="geometry" />
        </mxCell>
        <mxCell id="BCkx3oVRZh2mKSqZO-g1-48" value="" style="rounded=1;whiteSpace=wrap;html=1;" parent="1" vertex="1">
          <mxGeometry x="610" y="-1690" width="498" height="500" as="geometry" />
        </mxCell>
        <mxCell id="BCkx3oVRZh2mKSqZO-g1-36" value="" style="rounded=1;whiteSpace=wrap;html=1;" parent="1" vertex="1">
          <mxGeometry x="130" y="-2110" width="430" height="520" as="geometry" />
        </mxCell>
        <mxCell id="BCkx3oVRZh2mKSqZO-g1-1" value="" style="shape=mxgraph.cisco.routers.router;sketch=0;html=1;pointerEvents=1;dashed=0;fillColor=#036897;strokeColor=#ffffff;strokeWidth=2;verticalLabelPosition=bottom;verticalAlign=top;align=center;outlineConnect=0;" parent="1" vertex="1">
          <mxGeometry x="643" y="-2450" width="78" height="53" as="geometry" />
        </mxCell>
        <mxCell id="BCkx3oVRZh2mKSqZO-g1-2" value="" style="shape=mxgraph.cisco.routers.router;sketch=0;html=1;pointerEvents=1;dashed=0;fillColor=#036897;strokeColor=#ffffff;strokeWidth=2;verticalLabelPosition=bottom;verticalAlign=top;align=center;outlineConnect=0;" parent="1" vertex="1">
          <mxGeometry x="870" y="-2440" width="78" height="53" as="geometry" />
        </mxCell>
        <mxCell id="BCkx3oVRZh2mKSqZO-g1-3" value="" style="shape=mxgraph.cisco.switches.layer_3_switch;sketch=0;html=1;pointerEvents=1;dashed=0;fillColor=#036897;strokeColor=#ffffff;strokeWidth=2;verticalLabelPosition=bottom;verticalAlign=top;align=center;outlineConnect=0;" parent="1" vertex="1">
          <mxGeometry x="650" y="-2260" width="64" height="64" as="geometry" />
        </mxCell>
        <mxCell id="BCkx3oVRZh2mKSqZO-g1-4" value="" style="shape=mxgraph.cisco.switches.layer_3_switch;sketch=0;html=1;pointerEvents=1;dashed=0;fillColor=#036897;strokeColor=#ffffff;strokeWidth=2;verticalLabelPosition=bottom;verticalAlign=top;align=center;outlineConnect=0;" parent="1" vertex="1">
          <mxGeometry x="877" y="-2260" width="64" height="64" as="geometry" />
        </mxCell>
        <mxCell id="BCkx3oVRZh2mKSqZO-g1-5" value="" style="shape=mxgraph.cisco.switches.workgroup_switch;sketch=0;html=1;pointerEvents=1;dashed=0;fillColor=#036897;strokeColor=#ffffff;strokeWidth=2;verticalLabelPosition=bottom;verticalAlign=top;align=center;outlineConnect=0;" parent="1" vertex="1">
          <mxGeometry x="360" y="-2030" width="101" height="50" as="geometry" />
        </mxCell>
        <mxCell id="BCkx3oVRZh2mKSqZO-g1-6" value="" style="shape=mxgraph.cisco.switches.workgroup_switch;sketch=0;html=1;pointerEvents=1;dashed=0;fillColor=#036897;strokeColor=#ffffff;strokeWidth=2;verticalLabelPosition=bottom;verticalAlign=top;align=center;outlineConnect=0;" parent="1" vertex="1">
          <mxGeometry x="360" y="-1760" width="101" height="50" as="geometry" />
        </mxCell>
        <mxCell id="BCkx3oVRZh2mKSqZO-g1-7" value="" style="shape=mxgraph.cisco.switches.workgroup_switch;sketch=0;html=1;pointerEvents=1;dashed=0;fillColor=#036897;strokeColor=#ffffff;strokeWidth=2;verticalLabelPosition=bottom;verticalAlign=top;align=center;outlineConnect=0;" parent="1" vertex="1">
          <mxGeometry x="760" y="-1588" width="101" height="50" as="geometry" />
        </mxCell>
        <mxCell id="BCkx3oVRZh2mKSqZO-g1-8" value="" style="shape=mxgraph.cisco.switches.workgroup_switch;sketch=0;html=1;pointerEvents=1;dashed=0;fillColor=#036897;strokeColor=#ffffff;strokeWidth=2;verticalLabelPosition=bottom;verticalAlign=top;align=center;outlineConnect=0;" parent="1" vertex="1">
          <mxGeometry x="680" y="-1340" width="101" height="50" as="geometry" />
        </mxCell>
        <mxCell id="BCkx3oVRZh2mKSqZO-g1-9" value="" style="shape=mxgraph.cisco.switches.workgroup_switch;sketch=0;html=1;pointerEvents=1;dashed=0;fillColor=#036897;strokeColor=#ffffff;strokeWidth=2;verticalLabelPosition=bottom;verticalAlign=top;align=center;outlineConnect=0;" parent="1" vertex="1">
          <mxGeometry x="1250" y="-2048" width="101" height="50" as="geometry" />
        </mxCell>
        <mxCell id="BCkx3oVRZh2mKSqZO-g1-10" value="" style="shape=mxgraph.cisco.switches.workgroup_switch;sketch=0;html=1;pointerEvents=1;dashed=0;fillColor=#036897;strokeColor=#ffffff;strokeWidth=2;verticalLabelPosition=bottom;verticalAlign=top;align=center;outlineConnect=0;" parent="1" vertex="1">
          <mxGeometry x="1270" y="-1760" width="101" height="50" as="geometry" />
        </mxCell>
        <mxCell id="BCkx3oVRZh2mKSqZO-g1-11" style="edgeStyle=orthogonalEdgeStyle;rounded=0;orthogonalLoop=1;jettySize=auto;html=1;exitX=0.5;exitY=0;exitDx=0;exitDy=0;exitPerimeter=0;entryX=0.5;entryY=1;entryDx=0;entryDy=0;entryPerimeter=0;strokeColor=default;endArrow=none;startFill=0;strokeWidth=2;" parent="1" source="BCkx3oVRZh2mKSqZO-g1-3" target="BCkx3oVRZh2mKSqZO-g1-1" edge="1">
          <mxGeometry relative="1" as="geometry" />
        </mxCell>
        <mxCell id="BCkx3oVRZh2mKSqZO-g1-12" style="edgeStyle=orthogonalEdgeStyle;rounded=0;orthogonalLoop=1;jettySize=auto;html=1;exitX=0.5;exitY=0;exitDx=0;exitDy=0;exitPerimeter=0;entryX=0.5;entryY=1;entryDx=0;entryDy=0;entryPerimeter=0;strokeWidth=2;endArrow=none;startFill=0;" parent="1" source="BCkx3oVRZh2mKSqZO-g1-4" target="BCkx3oVRZh2mKSqZO-g1-2" edge="1">
          <mxGeometry relative="1" as="geometry" />
        </mxCell>
        <mxCell id="BCkx3oVRZh2mKSqZO-g1-20" value="" style="endArrow=none;html=1;rounded=0;entryX=0.88;entryY=0.9;entryDx=0;entryDy=0;entryPerimeter=0;exitX=0.08;exitY=0.05;exitDx=0;exitDy=0;exitPerimeter=0;" parent="1" source="BCkx3oVRZh2mKSqZO-g1-4" target="BCkx3oVRZh2mKSqZO-g1-1" edge="1">
          <mxGeometry width="50" height="50" relative="1" as="geometry">
            <mxPoint x="410" y="-2050" as="sourcePoint" />
            <mxPoint x="460" y="-2100" as="targetPoint" />
          </mxGeometry>
        </mxCell>
        <mxCell id="BCkx3oVRZh2mKSqZO-g1-21" value="" style="endArrow=none;html=1;rounded=0;exitX=1;exitY=0;exitDx=0;exitDy=0;exitPerimeter=0;" parent="1" source="BCkx3oVRZh2mKSqZO-g1-3" target="BCkx3oVRZh2mKSqZO-g1-2" edge="1">
          <mxGeometry width="50" height="50" relative="1" as="geometry">
            <mxPoint x="410" y="-2050" as="sourcePoint" />
            <mxPoint x="460" y="-2100" as="targetPoint" />
          </mxGeometry>
        </mxCell>
        <mxCell id="BCkx3oVRZh2mKSqZO-g1-22" value="" style="endArrow=none;html=1;rounded=0;entryX=0;entryY=1;entryDx=0;entryDy=0;entryPerimeter=0;" parent="1" source="BCkx3oVRZh2mKSqZO-g1-5" target="BCkx3oVRZh2mKSqZO-g1-3" edge="1">
          <mxGeometry width="50" height="50" relative="1" as="geometry">
            <mxPoint x="410" y="-2050" as="sourcePoint" />
            <mxPoint x="680" y="-2190" as="targetPoint" />
          </mxGeometry>
        </mxCell>
        <mxCell id="BCkx3oVRZh2mKSqZO-g1-23" value="" style="endArrow=none;html=1;rounded=0;entryX=0;entryY=1;entryDx=0;entryDy=0;entryPerimeter=0;exitX=0.98;exitY=0.5;exitDx=0;exitDy=0;exitPerimeter=0;" parent="1" source="BCkx3oVRZh2mKSqZO-g1-5" target="BCkx3oVRZh2mKSqZO-g1-4" edge="1">
          <mxGeometry width="50" height="50" relative="1" as="geometry">
            <mxPoint x="370" y="-2030" as="sourcePoint" />
            <mxPoint x="420" y="-2080" as="targetPoint" />
          </mxGeometry>
        </mxCell>
        <mxCell id="BCkx3oVRZh2mKSqZO-g1-24" value="" style="endArrow=none;html=1;rounded=0;exitX=1;exitY=0;exitDx=0;exitDy=0;exitPerimeter=0;" parent="1" source="BCkx3oVRZh2mKSqZO-g1-6" edge="1">
          <mxGeometry width="50" height="50" relative="1" as="geometry">
            <mxPoint x="370" y="-2030" as="sourcePoint" />
            <mxPoint x="650" y="-2196" as="targetPoint" />
          </mxGeometry>
        </mxCell>
        <mxCell id="BCkx3oVRZh2mKSqZO-g1-25" value="" style="endArrow=none;html=1;rounded=0;entryX=0;entryY=1;entryDx=0;entryDy=0;entryPerimeter=0;exitX=0.98;exitY=0.5;exitDx=0;exitDy=0;exitPerimeter=0;" parent="1" source="BCkx3oVRZh2mKSqZO-g1-6" target="BCkx3oVRZh2mKSqZO-g1-4" edge="1">
          <mxGeometry width="50" height="50" relative="1" as="geometry">
            <mxPoint x="370" y="-2030" as="sourcePoint" />
            <mxPoint x="910" y="-2200" as="targetPoint" />
          </mxGeometry>
        </mxCell>
        <mxCell id="BCkx3oVRZh2mKSqZO-g1-26" value="" style="endArrow=none;html=1;rounded=0;entryX=0.5;entryY=1;entryDx=0;entryDy=0;entryPerimeter=0;exitX=0.16;exitY=0.23;exitDx=0;exitDy=0;exitPerimeter=0;" parent="1" source="BCkx3oVRZh2mKSqZO-g1-7" target="BCkx3oVRZh2mKSqZO-g1-3" edge="1">
          <mxGeometry width="50" height="50" relative="1" as="geometry">
            <mxPoint x="670" y="-2130" as="sourcePoint" />
            <mxPoint x="720" y="-2180" as="targetPoint" />
          </mxGeometry>
        </mxCell>
        <mxCell id="BCkx3oVRZh2mKSqZO-g1-27" value="" style="endArrow=none;html=1;rounded=0;entryX=0.5;entryY=1;entryDx=0;entryDy=0;entryPerimeter=0;exitX=0.5;exitY=0;exitDx=0;exitDy=0;exitPerimeter=0;" parent="1" source="BCkx3oVRZh2mKSqZO-g1-7" target="BCkx3oVRZh2mKSqZO-g1-4" edge="1">
          <mxGeometry width="50" height="50" relative="1" as="geometry">
            <mxPoint x="610" y="-2030" as="sourcePoint" />
            <mxPoint x="940" y="-2150" as="targetPoint" />
          </mxGeometry>
        </mxCell>
        <mxCell id="BCkx3oVRZh2mKSqZO-g1-28" value="" style="endArrow=none;html=1;rounded=0;entryX=0.5;entryY=1;entryDx=0;entryDy=0;entryPerimeter=0;exitX=0;exitY=0.5;exitDx=0;exitDy=0;exitPerimeter=0;" parent="1" source="BCkx3oVRZh2mKSqZO-g1-8" target="BCkx3oVRZh2mKSqZO-g1-3" edge="1">
          <mxGeometry width="50" height="50" relative="1" as="geometry">
            <mxPoint x="640" y="-2060" as="sourcePoint" />
            <mxPoint x="680" y="-2190" as="targetPoint" />
          </mxGeometry>
        </mxCell>
        <mxCell id="BCkx3oVRZh2mKSqZO-g1-29" value="" style="endArrow=none;html=1;rounded=0;entryX=0.5;entryY=1;entryDx=0;entryDy=0;entryPerimeter=0;exitX=0.16;exitY=0.23;exitDx=0;exitDy=0;exitPerimeter=0;" parent="1" source="BCkx3oVRZh2mKSqZO-g1-8" target="BCkx3oVRZh2mKSqZO-g1-4" edge="1">
          <mxGeometry width="50" height="50" relative="1" as="geometry">
            <mxPoint x="390" y="-2010" as="sourcePoint" />
            <mxPoint x="900" y="-2190" as="targetPoint" />
          </mxGeometry>
        </mxCell>
        <mxCell id="BCkx3oVRZh2mKSqZO-g1-32" value="" style="endArrow=none;html=1;rounded=0;entryX=0.95;entryY=0.94;entryDx=0;entryDy=0;entryPerimeter=0;exitX=0;exitY=0.5;exitDx=0;exitDy=0;exitPerimeter=0;" parent="1" source="BCkx3oVRZh2mKSqZO-g1-9" target="BCkx3oVRZh2mKSqZO-g1-3" edge="1">
          <mxGeometry width="50" height="50" relative="1" as="geometry">
            <mxPoint x="810" y="-2030" as="sourcePoint" />
            <mxPoint x="860" y="-2080" as="targetPoint" />
          </mxGeometry>
        </mxCell>
        <mxCell id="BCkx3oVRZh2mKSqZO-g1-33" value="" style="endArrow=none;html=1;rounded=0;entryX=0.95;entryY=0.94;entryDx=0;entryDy=0;entryPerimeter=0;exitX=0.16;exitY=0.23;exitDx=0;exitDy=0;exitPerimeter=0;" parent="1" source="BCkx3oVRZh2mKSqZO-g1-9" target="BCkx3oVRZh2mKSqZO-g1-4" edge="1">
          <mxGeometry width="50" height="50" relative="1" as="geometry">
            <mxPoint x="810" y="-2030" as="sourcePoint" />
            <mxPoint x="860" y="-2080" as="targetPoint" />
          </mxGeometry>
        </mxCell>
        <mxCell id="BCkx3oVRZh2mKSqZO-g1-34" value="" style="endArrow=none;html=1;rounded=0;entryX=0.95;entryY=0.94;entryDx=0;entryDy=0;entryPerimeter=0;exitX=0;exitY=0.5;exitDx=0;exitDy=0;exitPerimeter=0;" parent="1" source="BCkx3oVRZh2mKSqZO-g1-10" target="BCkx3oVRZh2mKSqZO-g1-3" edge="1">
          <mxGeometry width="50" height="50" relative="1" as="geometry">
            <mxPoint x="690" y="-2020" as="sourcePoint" />
            <mxPoint x="740" y="-2070" as="targetPoint" />
          </mxGeometry>
        </mxCell>
        <mxCell id="BCkx3oVRZh2mKSqZO-g1-35" value="" style="endArrow=none;html=1;rounded=0;entryX=0.95;entryY=0.94;entryDx=0;entryDy=0;entryPerimeter=0;" parent="1" source="BCkx3oVRZh2mKSqZO-g1-10" target="BCkx3oVRZh2mKSqZO-g1-4" edge="1">
          <mxGeometry width="50" height="50" relative="1" as="geometry">
            <mxPoint x="710" y="-2000" as="sourcePoint" />
            <mxPoint x="760" y="-2050" as="targetPoint" />
          </mxGeometry>
        </mxCell>
        <mxCell id="BCkx3oVRZh2mKSqZO-g1-37" value="" style="sketch=0;points=[[0.015,0.015,0],[0.985,0.015,0],[0.985,0.985,0],[0.015,0.985,0],[0.25,0,0],[0.5,0,0],[0.75,0,0],[1,0.25,0],[1,0.5,0],[1,0.75,0],[0.75,1,0],[0.5,1,0],[0.25,1,0],[0,0.75,0],[0,0.5,0],[0,0.25,0]];verticalLabelPosition=bottom;html=1;verticalAlign=top;aspect=fixed;align=center;pointerEvents=1;shape=mxgraph.cisco19.dns_server;fillColor=#005073;strokeColor=none;" parent="1" vertex="1">
          <mxGeometry x="1440" y="-1840" width="27.500000000000004" height="50" as="geometry" />
        </mxCell>
        <mxCell id="BCkx3oVRZh2mKSqZO-g1-40" value="" style="sketch=0;points=[[0.015,0.015,0],[0.985,0.015,0],[0.985,0.985,0],[0.015,0.985,0],[0.25,0,0],[0.5,0,0],[0.75,0,0],[1,0.25,0],[1,0.5,0],[1,0.75,0],[0.75,1,0],[0.5,1,0],[0.25,1,0],[0,0.75,0],[0,0.5,0],[0,0.25,0]];verticalLabelPosition=bottom;html=1;verticalAlign=top;aspect=fixed;align=center;pointerEvents=1;shape=mxgraph.cisco19.server;fillColor=#005073;strokeColor=none;" parent="1" vertex="1">
          <mxGeometry x="1440" y="-1680" width="27.500000000000004" height="50" as="geometry" />
        </mxCell>
        <mxCell id="BCkx3oVRZh2mKSqZO-g1-41" value="" style="shape=mxgraph.cisco.computers_and_peripherals.workstation;sketch=0;html=1;pointerEvents=1;dashed=0;fillColor=#036897;strokeColor=#ffffff;strokeWidth=2;verticalLabelPosition=bottom;verticalAlign=top;align=center;outlineConnect=0;" parent="1" vertex="1">
          <mxGeometry x="170" y="-2060" width="83" height="62" as="geometry" />
        </mxCell>
        <mxCell id="BCkx3oVRZh2mKSqZO-g1-42" value="" style="shape=mxgraph.cisco.computers_and_peripherals.workstation;sketch=0;html=1;pointerEvents=1;dashed=0;fillColor=#036897;strokeColor=#ffffff;strokeWidth=2;verticalLabelPosition=bottom;verticalAlign=top;align=center;outlineConnect=0;" parent="1" vertex="1">
          <mxGeometry x="170" y="-1980" width="83" height="62" as="geometry" />
        </mxCell>
        <mxCell id="BCkx3oVRZh2mKSqZO-g1-43" value="" style="shape=mxgraph.cisco.computers_and_peripherals.workstation;sketch=0;html=1;pointerEvents=1;dashed=0;fillColor=#036897;strokeColor=#ffffff;strokeWidth=2;verticalLabelPosition=bottom;verticalAlign=top;align=center;outlineConnect=0;" parent="1" vertex="1">
          <mxGeometry x="160" y="-1782" width="83" height="62" as="geometry" />
        </mxCell>
        <mxCell id="BCkx3oVRZh2mKSqZO-g1-44" value="" style="shape=mxgraph.cisco.computers_and_peripherals.workstation;sketch=0;html=1;pointerEvents=1;dashed=0;fillColor=#036897;strokeColor=#ffffff;strokeWidth=2;verticalLabelPosition=bottom;verticalAlign=top;align=center;outlineConnect=0;" parent="1" vertex="1">
          <mxGeometry x="160" y="-1700" width="83" height="62" as="geometry" />
        </mxCell>
        <mxCell id="BCkx3oVRZh2mKSqZO-g1-45" value="" style="shape=mxgraph.cisco.computers_and_peripherals.workstation;sketch=0;html=1;pointerEvents=1;dashed=0;fillColor=#036897;strokeColor=#ffffff;strokeWidth=2;verticalLabelPosition=bottom;verticalAlign=top;align=center;outlineConnect=0;" parent="1" vertex="1">
          <mxGeometry x="990" y="-1650" width="83" height="62" as="geometry" />
        </mxCell>
        <mxCell id="BCkx3oVRZh2mKSqZO-g1-49" value="" style="shape=mxgraph.cisco.computers_and_peripherals.workstation;sketch=0;html=1;pointerEvents=1;dashed=0;fillColor=#036897;strokeColor=#ffffff;strokeWidth=2;verticalLabelPosition=bottom;verticalAlign=top;align=center;outlineConnect=0;" parent="1" vertex="1">
          <mxGeometry x="990" y="-1550" width="83" height="62" as="geometry" />
        </mxCell>
        <mxCell id="BCkx3oVRZh2mKSqZO-g1-50" value="" style="shape=mxgraph.cisco.computers_and_peripherals.workstation;sketch=0;html=1;pointerEvents=1;dashed=0;fillColor=#036897;strokeColor=#ffffff;strokeWidth=2;verticalLabelPosition=bottom;verticalAlign=top;align=center;outlineConnect=0;" parent="1" vertex="1">
          <mxGeometry x="990" y="-1410" width="83" height="62" as="geometry" />
        </mxCell>
        <mxCell id="BCkx3oVRZh2mKSqZO-g1-51" value="" style="shape=mxgraph.cisco.computers_and_peripherals.workstation;sketch=0;html=1;pointerEvents=1;dashed=0;fillColor=#036897;strokeColor=#ffffff;strokeWidth=2;verticalLabelPosition=bottom;verticalAlign=top;align=center;outlineConnect=0;" parent="1" vertex="1">
          <mxGeometry x="980" y="-1300" width="83" height="62" as="geometry" />
        </mxCell>
        <mxCell id="BCkx3oVRZh2mKSqZO-g1-53" value="" style="shape=mxgraph.cisco.computers_and_peripherals.workstation;sketch=0;html=1;pointerEvents=1;dashed=0;fillColor=#036897;strokeColor=#ffffff;strokeWidth=2;verticalLabelPosition=bottom;verticalAlign=top;align=center;outlineConnect=0;" parent="1" vertex="1">
          <mxGeometry x="1510" y="-2092" width="83" height="62" as="geometry" />
        </mxCell>
        <mxCell id="BCkx3oVRZh2mKSqZO-g1-55" value="" style="shape=mxgraph.cisco.computers_and_peripherals.workstation;sketch=0;html=1;pointerEvents=1;dashed=0;fillColor=#036897;strokeColor=#ffffff;strokeWidth=2;verticalLabelPosition=bottom;verticalAlign=top;align=center;outlineConnect=0;" parent="1" vertex="1">
          <mxGeometry x="1510" y="-2000" width="83" height="62" as="geometry" />
        </mxCell>
        <mxCell id="BCkx3oVRZh2mKSqZO-g1-56" value="" style="shape=mxgraph.cisco.computers_and_peripherals.workstation;sketch=0;html=1;pointerEvents=1;dashed=0;fillColor=#036897;strokeColor=#ffffff;strokeWidth=2;verticalLabelPosition=bottom;verticalAlign=top;align=center;outlineConnect=0;" parent="1" vertex="1">
          <mxGeometry x="1520" y="-1772" width="83" height="62" as="geometry" />
        </mxCell>
        <mxCell id="BCkx3oVRZh2mKSqZO-g1-60" value="" style="endArrow=none;html=1;rounded=0;entryX=0.755;entryY=0.5;entryDx=0;entryDy=0;entryPerimeter=0;exitX=0;exitY=0.5;exitDx=0;exitDy=0;exitPerimeter=0;" parent="1" source="BCkx3oVRZh2mKSqZO-g1-5" target="BCkx3oVRZh2mKSqZO-g1-41" edge="1">
          <mxGeometry width="50" height="50" relative="1" as="geometry">
            <mxPoint x="1030" y="-1680" as="sourcePoint" />
            <mxPoint x="1080" y="-1730" as="targetPoint" />
          </mxGeometry>
        </mxCell>
        <mxCell id="BCkx3oVRZh2mKSqZO-g1-61" value="" style="endArrow=none;html=1;rounded=0;exitX=0.755;exitY=0.5;exitDx=0;exitDy=0;exitPerimeter=0;entryX=0;entryY=0.98;entryDx=0;entryDy=0;entryPerimeter=0;" parent="1" source="BCkx3oVRZh2mKSqZO-g1-42" target="BCkx3oVRZh2mKSqZO-g1-5" edge="1">
          <mxGeometry width="50" height="50" relative="1" as="geometry">
            <mxPoint x="790" y="-1760" as="sourcePoint" />
            <mxPoint x="840" y="-1810" as="targetPoint" />
          </mxGeometry>
        </mxCell>
        <mxCell id="BCkx3oVRZh2mKSqZO-g1-62" value="" style="endArrow=none;html=1;rounded=0;exitX=0.755;exitY=0.5;exitDx=0;exitDy=0;exitPerimeter=0;entryX=0;entryY=0.5;entryDx=0;entryDy=0;entryPerimeter=0;" parent="1" source="BCkx3oVRZh2mKSqZO-g1-43" target="BCkx3oVRZh2mKSqZO-g1-6" edge="1">
          <mxGeometry width="50" height="50" relative="1" as="geometry">
            <mxPoint x="780" y="-1770" as="sourcePoint" />
            <mxPoint x="830" y="-1820" as="targetPoint" />
          </mxGeometry>
        </mxCell>
        <mxCell id="BCkx3oVRZh2mKSqZO-g1-63" value="" style="endArrow=none;html=1;rounded=0;exitX=0.755;exitY=0.5;exitDx=0;exitDy=0;exitPerimeter=0;entryX=0;entryY=0.98;entryDx=0;entryDy=0;entryPerimeter=0;" parent="1" source="BCkx3oVRZh2mKSqZO-g1-44" target="BCkx3oVRZh2mKSqZO-g1-6" edge="1">
          <mxGeometry width="50" height="50" relative="1" as="geometry">
            <mxPoint x="780" y="-1770" as="sourcePoint" />
            <mxPoint x="830" y="-1820" as="targetPoint" />
          </mxGeometry>
        </mxCell>
        <mxCell id="BCkx3oVRZh2mKSqZO-g1-64" value="" style="endArrow=none;html=1;rounded=0;entryX=0.11;entryY=0.5;entryDx=0;entryDy=0;entryPerimeter=0;exitX=1;exitY=0;exitDx=0;exitDy=0;exitPerimeter=0;" parent="1" source="BCkx3oVRZh2mKSqZO-g1-9" target="BCkx3oVRZh2mKSqZO-g1-53" edge="1">
          <mxGeometry width="50" height="50" relative="1" as="geometry">
            <mxPoint x="940" y="-1750" as="sourcePoint" />
            <mxPoint x="990" y="-1800" as="targetPoint" />
          </mxGeometry>
        </mxCell>
        <mxCell id="BCkx3oVRZh2mKSqZO-g1-65" value="" style="endArrow=none;html=1;rounded=0;entryX=0.11;entryY=0.5;entryDx=0;entryDy=0;entryPerimeter=0;exitX=0.98;exitY=0.5;exitDx=0;exitDy=0;exitPerimeter=0;" parent="1" source="BCkx3oVRZh2mKSqZO-g1-9" target="BCkx3oVRZh2mKSqZO-g1-55" edge="1">
          <mxGeometry width="50" height="50" relative="1" as="geometry">
            <mxPoint x="1080" y="-1800" as="sourcePoint" />
            <mxPoint x="1130" y="-1850" as="targetPoint" />
          </mxGeometry>
        </mxCell>
        <mxCell id="BCkx3oVRZh2mKSqZO-g1-66" value="" style="endArrow=none;html=1;rounded=0;entryX=0;entryY=0.5;entryDx=0;entryDy=0;entryPerimeter=0;exitX=1;exitY=0;exitDx=0;exitDy=0;exitPerimeter=0;" parent="1" source="BCkx3oVRZh2mKSqZO-g1-10" target="BCkx3oVRZh2mKSqZO-g1-37" edge="1">
          <mxGeometry width="50" height="50" relative="1" as="geometry">
            <mxPoint x="1080" y="-1800" as="sourcePoint" />
            <mxPoint x="1130" y="-1850" as="targetPoint" />
          </mxGeometry>
        </mxCell>
        <mxCell id="BCkx3oVRZh2mKSqZO-g1-67" value="" style="endArrow=none;html=1;rounded=0;entryX=0.11;entryY=0.5;entryDx=0;entryDy=0;entryPerimeter=0;" parent="1" source="BCkx3oVRZh2mKSqZO-g1-10" target="BCkx3oVRZh2mKSqZO-g1-56" edge="1">
          <mxGeometry width="50" height="50" relative="1" as="geometry">
            <mxPoint x="1080" y="-1800" as="sourcePoint" />
            <mxPoint x="1130" y="-1850" as="targetPoint" />
          </mxGeometry>
        </mxCell>
        <mxCell id="BCkx3oVRZh2mKSqZO-g1-68" value="" style="endArrow=none;html=1;rounded=0;entryX=0;entryY=0.5;entryDx=0;entryDy=0;entryPerimeter=0;exitX=0.87;exitY=0.74;exitDx=0;exitDy=0;exitPerimeter=0;" parent="1" source="BCkx3oVRZh2mKSqZO-g1-10" target="BCkx3oVRZh2mKSqZO-g1-40" edge="1">
          <mxGeometry width="50" height="50" relative="1" as="geometry">
            <mxPoint x="1080" y="-1800" as="sourcePoint" />
            <mxPoint x="1130" y="-1850" as="targetPoint" />
          </mxGeometry>
        </mxCell>
        <mxCell id="BCkx3oVRZh2mKSqZO-g1-69" value="" style="endArrow=none;html=1;rounded=0;entryX=0.11;entryY=0.5;entryDx=0;entryDy=0;entryPerimeter=0;exitX=1;exitY=0;exitDx=0;exitDy=0;exitPerimeter=0;" parent="1" source="BCkx3oVRZh2mKSqZO-g1-7" target="BCkx3oVRZh2mKSqZO-g1-45" edge="1">
          <mxGeometry width="50" height="50" relative="1" as="geometry">
            <mxPoint x="730" y="-1740" as="sourcePoint" />
            <mxPoint x="780" y="-1790" as="targetPoint" />
          </mxGeometry>
        </mxCell>
        <mxCell id="BCkx3oVRZh2mKSqZO-g1-70" value="" style="endArrow=none;html=1;rounded=0;entryX=0.11;entryY=0.5;entryDx=0;entryDy=0;entryPerimeter=0;exitX=0.98;exitY=0.5;exitDx=0;exitDy=0;exitPerimeter=0;" parent="1" source="BCkx3oVRZh2mKSqZO-g1-7" target="BCkx3oVRZh2mKSqZO-g1-49" edge="1">
          <mxGeometry width="50" height="50" relative="1" as="geometry">
            <mxPoint x="790" y="-1720" as="sourcePoint" />
            <mxPoint x="840" y="-1770" as="targetPoint" />
          </mxGeometry>
        </mxCell>
        <mxCell id="BCkx3oVRZh2mKSqZO-g1-72" value="" style="endArrow=none;html=1;rounded=0;entryX=0.11;entryY=0.5;entryDx=0;entryDy=0;entryPerimeter=0;exitX=1;exitY=0;exitDx=0;exitDy=0;exitPerimeter=0;" parent="1" source="BCkx3oVRZh2mKSqZO-g1-8" target="BCkx3oVRZh2mKSqZO-g1-50" edge="1">
          <mxGeometry width="50" height="50" relative="1" as="geometry">
            <mxPoint x="850" y="-1750" as="sourcePoint" />
            <mxPoint x="900" y="-1800" as="targetPoint" />
          </mxGeometry>
        </mxCell>
        <mxCell id="BCkx3oVRZh2mKSqZO-g1-76" value="" style="endArrow=none;html=1;rounded=0;entryX=0.11;entryY=0.5;entryDx=0;entryDy=0;entryPerimeter=0;exitX=0.98;exitY=0.5;exitDx=0;exitDy=0;exitPerimeter=0;" parent="1" source="BCkx3oVRZh2mKSqZO-g1-8" target="BCkx3oVRZh2mKSqZO-g1-51" edge="1">
          <mxGeometry width="50" height="50" relative="1" as="geometry">
            <mxPoint x="950" y="-1300" as="sourcePoint" />
            <mxPoint x="1000" y="-1350" as="targetPoint" />
          </mxGeometry>
        </mxCell>
        <mxCell id="BCkx3oVRZh2mKSqZO-g1-77" value="" style="shape=mxgraph.cisco.routers.router;sketch=0;html=1;pointerEvents=1;dashed=0;fillColor=#036897;strokeColor=#ffffff;strokeWidth=2;verticalLabelPosition=bottom;verticalAlign=top;align=center;outlineConnect=0;" parent="1" vertex="1">
          <mxGeometry x="2020" y="-2520" width="78" height="53" as="geometry" />
        </mxCell>
        <mxCell id="BCkx3oVRZh2mKSqZO-g1-78" value="" style="shape=mxgraph.cisco.switches.workgroup_switch;sketch=0;html=1;pointerEvents=1;dashed=0;fillColor=#036897;strokeColor=#ffffff;strokeWidth=2;verticalLabelPosition=bottom;verticalAlign=top;align=center;outlineConnect=0;" parent="1" vertex="1">
          <mxGeometry x="2008.5" y="-2350" width="101" height="50" as="geometry" />
        </mxCell>
        <mxCell id="BCkx3oVRZh2mKSqZO-g1-79" value="" style="shape=mxgraph.cisco.computers_and_peripherals.workstation;sketch=0;html=1;pointerEvents=1;dashed=0;fillColor=#036897;strokeColor=#ffffff;strokeWidth=2;verticalLabelPosition=bottom;verticalAlign=top;align=center;outlineConnect=0;" parent="1" vertex="1">
          <mxGeometry x="1925.5" y="-2200" width="83" height="62" as="geometry" />
        </mxCell>
        <mxCell id="BCkx3oVRZh2mKSqZO-g1-80" value="" style="shape=mxgraph.cisco.computers_and_peripherals.workstation;sketch=0;html=1;pointerEvents=1;dashed=0;fillColor=#036897;strokeColor=#ffffff;strokeWidth=2;verticalLabelPosition=bottom;verticalAlign=top;align=center;outlineConnect=0;" parent="1" vertex="1">
          <mxGeometry x="2109.5" y="-2192" width="83" height="62" as="geometry" />
        </mxCell>
        <mxCell id="BCkx3oVRZh2mKSqZO-g1-81" value="" style="shape=mxgraph.cisco.routers.router;sketch=0;html=1;pointerEvents=1;dashed=0;fillColor=#036897;strokeColor=#ffffff;strokeWidth=2;verticalLabelPosition=bottom;verticalAlign=top;align=center;outlineConnect=0;" parent="1" vertex="1">
          <mxGeometry x="532" y="-2690" width="78" height="53" as="geometry" />
        </mxCell>
        <mxCell id="BCkx3oVRZh2mKSqZO-g1-82" value="" style="shape=mxgraph.cisco.routers.router;sketch=0;html=1;pointerEvents=1;dashed=0;fillColor=#036897;strokeColor=#ffffff;strokeWidth=2;verticalLabelPosition=bottom;verticalAlign=top;align=center;outlineConnect=0;" parent="1" vertex="1">
          <mxGeometry x="1040" y="-2690" width="78" height="53" as="geometry" />
        </mxCell>
        <mxCell id="BCkx3oVRZh2mKSqZO-g1-83" value="" style="shape=mxgraph.cisco.routers.router;sketch=0;html=1;pointerEvents=1;dashed=0;fillColor=#036897;strokeColor=#ffffff;strokeWidth=2;verticalLabelPosition=bottom;verticalAlign=top;align=center;outlineConnect=0;" parent="1" vertex="1">
          <mxGeometry x="1440" y="-2690" width="78" height="53" as="geometry" />
        </mxCell>
        <mxCell id="BCkx3oVRZh2mKSqZO-g1-84" value="" style="endArrow=none;html=1;rounded=0;entryX=0;entryY=0.5;entryDx=0;entryDy=0;entryPerimeter=0;exitX=1;exitY=0.5;exitDx=0;exitDy=0;exitPerimeter=0;" parent="1" source="BCkx3oVRZh2mKSqZO-g1-82" target="BCkx3oVRZh2mKSqZO-g1-83" edge="1">
          <mxGeometry width="50" height="50" relative="1" as="geometry">
            <mxPoint x="1080" y="-2350" as="sourcePoint" />
            <mxPoint x="1130" y="-2400" as="targetPoint" />
          </mxGeometry>
        </mxCell>
        <mxCell id="BCkx3oVRZh2mKSqZO-g1-85" value="" style="endArrow=none;html=1;rounded=0;entryX=0.88;entryY=0.9;entryDx=0;entryDy=0;entryPerimeter=0;exitX=0;exitY=0.5;exitDx=0;exitDy=0;exitPerimeter=0;" parent="1" source="BCkx3oVRZh2mKSqZO-g1-77" target="BCkx3oVRZh2mKSqZO-g1-83" edge="1">
          <mxGeometry width="50" height="50" relative="1" as="geometry">
            <mxPoint x="1080" y="-2350" as="sourcePoint" />
            <mxPoint x="1130" y="-2400" as="targetPoint" />
          </mxGeometry>
        </mxCell>
        <mxCell id="BCkx3oVRZh2mKSqZO-g1-86" value="" style="endArrow=none;html=1;rounded=0;entryX=0.5;entryY=1;entryDx=0;entryDy=0;entryPerimeter=0;" parent="1" source="BCkx3oVRZh2mKSqZO-g1-2" target="BCkx3oVRZh2mKSqZO-g1-82" edge="1">
          <mxGeometry width="50" height="50" relative="1" as="geometry">
            <mxPoint x="1080" y="-2350" as="sourcePoint" />
            <mxPoint x="1130" y="-2400" as="targetPoint" />
          </mxGeometry>
        </mxCell>
        <mxCell id="BCkx3oVRZh2mKSqZO-g1-87" value="" style="endArrow=none;html=1;rounded=0;entryX=0.12;entryY=0.9;entryDx=0;entryDy=0;entryPerimeter=0;" parent="1" source="BCkx3oVRZh2mKSqZO-g1-1" target="BCkx3oVRZh2mKSqZO-g1-82" edge="1">
          <mxGeometry width="50" height="50" relative="1" as="geometry">
            <mxPoint x="1080" y="-2350" as="sourcePoint" />
            <mxPoint x="1130" y="-2400" as="targetPoint" />
          </mxGeometry>
        </mxCell>
        <mxCell id="BCkx3oVRZh2mKSqZO-g1-88" value="" style="endArrow=none;html=1;rounded=0;entryX=0.88;entryY=0.9;entryDx=0;entryDy=0;entryPerimeter=0;exitX=0.12;exitY=0.1;exitDx=0;exitDy=0;exitPerimeter=0;" parent="1" source="BCkx3oVRZh2mKSqZO-g1-2" target="BCkx3oVRZh2mKSqZO-g1-81" edge="1">
          <mxGeometry width="50" height="50" relative="1" as="geometry">
            <mxPoint x="940" y="-2390" as="sourcePoint" />
            <mxPoint x="990" y="-2440" as="targetPoint" />
          </mxGeometry>
        </mxCell>
        <mxCell id="BCkx3oVRZh2mKSqZO-g1-90" value="" style="endArrow=none;html=1;rounded=0;entryX=0.5;entryY=1;entryDx=0;entryDy=0;entryPerimeter=0;exitX=0.5;exitY=0;exitDx=0;exitDy=0;exitPerimeter=0;" parent="1" source="BCkx3oVRZh2mKSqZO-g1-1" target="BCkx3oVRZh2mKSqZO-g1-81" edge="1">
          <mxGeometry width="50" height="50" relative="1" as="geometry">
            <mxPoint x="940" y="-2390" as="sourcePoint" />
            <mxPoint x="990" y="-2440" as="targetPoint" />
          </mxGeometry>
        </mxCell>
        <mxCell id="BCkx3oVRZh2mKSqZO-g1-91" value="" style="endArrow=none;html=1;rounded=0;entryX=0;entryY=0.5;entryDx=0;entryDy=0;entryPerimeter=0;exitX=1;exitY=0.5;exitDx=0;exitDy=0;exitPerimeter=0;" parent="1" source="BCkx3oVRZh2mKSqZO-g1-81" target="BCkx3oVRZh2mKSqZO-g1-82" edge="1">
          <mxGeometry width="50" height="50" relative="1" as="geometry">
            <mxPoint x="940" y="-2390" as="sourcePoint" />
            <mxPoint x="990" y="-2440" as="targetPoint" />
          </mxGeometry>
        </mxCell>
        <mxCell id="BCkx3oVRZh2mKSqZO-g1-96" value="&lt;font style=&quot;font-size: 25px;&quot;&gt;ISP1&lt;/font&gt;" style="text;html=1;align=center;verticalAlign=middle;whiteSpace=wrap;rounded=0;" parent="1" vertex="1">
          <mxGeometry x="472" y="-2760" width="60" height="30" as="geometry" />
        </mxCell>
        <mxCell id="BCkx3oVRZh2mKSqZO-g1-97" value="&lt;font style=&quot;font-size: 25px;&quot;&gt;ISP2&lt;/font&gt;" style="text;html=1;align=center;verticalAlign=middle;whiteSpace=wrap;rounded=0;" parent="1" vertex="1">
          <mxGeometry x="1260" y="-2760" width="60" height="30" as="geometry" />
        </mxCell>
        <mxCell id="BCkx3oVRZh2mKSqZO-g1-100" value="" style="endArrow=none;html=1;rounded=0;entryX=0.5;entryY=1;entryDx=0;entryDy=0;entryPerimeter=0;exitX=0.5;exitY=0;exitDx=0;exitDy=0;exitPerimeter=0;" parent="1" source="BCkx3oVRZh2mKSqZO-g1-78" target="BCkx3oVRZh2mKSqZO-g1-77" edge="1">
          <mxGeometry width="50" height="50" relative="1" as="geometry">
            <mxPoint x="1640" y="-2380" as="sourcePoint" />
            <mxPoint x="1690" y="-2430" as="targetPoint" />
          </mxGeometry>
        </mxCell>
        <mxCell id="BCkx3oVRZh2mKSqZO-g1-101" value="" style="endArrow=none;html=1;rounded=0;entryX=0;entryY=0.98;entryDx=0;entryDy=0;entryPerimeter=0;exitX=0.5;exitY=0;exitDx=0;exitDy=0;exitPerimeter=0;" parent="1" source="BCkx3oVRZh2mKSqZO-g1-79" target="BCkx3oVRZh2mKSqZO-g1-78" edge="1">
          <mxGeometry width="50" height="50" relative="1" as="geometry">
            <mxPoint x="1640" y="-2380" as="sourcePoint" />
            <mxPoint x="1690" y="-2430" as="targetPoint" />
          </mxGeometry>
        </mxCell>
        <mxCell id="BCkx3oVRZh2mKSqZO-g1-104" value="" style="endArrow=none;html=1;rounded=0;exitX=0.5;exitY=0;exitDx=0;exitDy=0;exitPerimeter=0;" parent="1" source="BCkx3oVRZh2mKSqZO-g1-80" target="BCkx3oVRZh2mKSqZO-g1-78" edge="1">
          <mxGeometry width="50" height="50" relative="1" as="geometry">
            <mxPoint x="2156.75" y="-2209.7799999999997" as="sourcePoint" />
            <mxPoint x="2070" y="-2246.229579831932" as="targetPoint" />
          </mxGeometry>
        </mxCell>
        <mxCell id="BCkx3oVRZh2mKSqZO-g1-105" value="&lt;font style=&quot;font-size: 16px;&quot;&gt;Core_R1&lt;/font&gt;" style="text;html=1;align=center;verticalAlign=middle;whiteSpace=wrap;rounded=0;strokeWidth=6;" parent="1" vertex="1">
          <mxGeometry x="610" y="-2387" width="60" height="30" as="geometry" />
        </mxCell>
        <mxCell id="BCkx3oVRZh2mKSqZO-g1-107" value="&lt;font style=&quot;font-size: 16px;&quot;&gt;Core_R2&lt;/font&gt;" style="text;html=1;align=center;verticalAlign=middle;whiteSpace=wrap;rounded=0;strokeWidth=6;" parent="1" vertex="1">
          <mxGeometry x="948" y="-2380" width="60" height="30" as="geometry" />
        </mxCell>
        <mxCell id="BCkx3oVRZh2mKSqZO-g1-108" value="&lt;span style=&quot;font-size: 16px;&quot;&gt;Multilayer_1&lt;/span&gt;" style="text;html=1;align=center;verticalAlign=middle;whiteSpace=wrap;rounded=0;strokeWidth=6;" parent="1" vertex="1">
          <mxGeometry x="600" y="-2300" width="60" height="30" as="geometry" />
        </mxCell>
        <mxCell id="BCkx3oVRZh2mKSqZO-g1-109" value="&lt;span style=&quot;font-size: 16px;&quot;&gt;Multilayer_2&lt;/span&gt;" style="text;html=1;align=center;verticalAlign=middle;whiteSpace=wrap;rounded=0;strokeWidth=6;" parent="1" vertex="1">
          <mxGeometry x="948" y="-2300" width="60" height="30" as="geometry" />
        </mxCell>
        <mxCell id="BCkx3oVRZh2mKSqZO-g1-110" value="&lt;font style=&quot;font-size: 16px;&quot;&gt;Access_Sales&lt;/font&gt;" style="text;html=1;align=center;verticalAlign=middle;whiteSpace=wrap;rounded=0;" parent="1" vertex="1">
          <mxGeometry x="380.5" y="-1964" width="60" height="30" as="geometry" />
        </mxCell>
        <mxCell id="BCkx3oVRZh2mKSqZO-g1-112" value="&lt;font style=&quot;font-size: 16px;&quot;&gt;Access_HR&lt;/font&gt;" style="text;html=1;align=center;verticalAlign=middle;whiteSpace=wrap;rounded=0;" parent="1" vertex="1">
          <mxGeometry x="380.5" y="-1700" width="60" height="30" as="geometry" />
        </mxCell>
        <mxCell id="BCkx3oVRZh2mKSqZO-g1-113" value="&lt;font style=&quot;font-size: 16px;&quot;&gt;Access_Finance&lt;/font&gt;" style="text;html=1;align=center;verticalAlign=middle;whiteSpace=wrap;rounded=0;" parent="1" vertex="1">
          <mxGeometry x="801" y="-1530" width="60" height="30" as="geometry" />
        </mxCell>
        <mxCell id="BCkx3oVRZh2mKSqZO-g1-114" value="&lt;font style=&quot;font-size: 16px;&quot;&gt;Access_OrderProc&lt;/font&gt;" style="text;html=1;align=center;verticalAlign=middle;whiteSpace=wrap;rounded=0;" parent="1" vertex="1">
          <mxGeometry x="700" y="-1280" width="60" height="30" as="geometry" />
        </mxCell>
        <mxCell id="BCkx3oVRZh2mKSqZO-g1-115" value="&lt;font style=&quot;font-size: 16px;&quot;&gt;Access_Legal&lt;/font&gt;" style="text;html=1;align=center;verticalAlign=middle;whiteSpace=wrap;rounded=0;" parent="1" vertex="1">
          <mxGeometry x="1260" y="-1984" width="60" height="30" as="geometry" />
        </mxCell>
        <mxCell id="BCkx3oVRZh2mKSqZO-g1-117" value="&lt;font style=&quot;font-size: 16px;&quot;&gt;Access_Server&lt;/font&gt;" style="text;html=1;align=center;verticalAlign=middle;whiteSpace=wrap;rounded=0;" parent="1" vertex="1">
          <mxGeometry x="1270.5" y="-1690" width="60" height="30" as="geometry" />
        </mxCell>
        <mxCell id="BCkx3oVRZh2mKSqZO-g1-118" value="&lt;font style=&quot;font-size: 19px;&quot;&gt;Floor 2&lt;/font&gt;" style="text;html=1;align=center;verticalAlign=middle;whiteSpace=wrap;rounded=0;" parent="1" vertex="1">
          <mxGeometry x="801" y="-1230" width="110" height="30" as="geometry" />
        </mxCell>
        <mxCell id="BCkx3oVRZh2mKSqZO-g1-119" value="&lt;font style=&quot;font-size: 19px;&quot;&gt;Floor 1&lt;/font&gt;" style="text;html=1;align=center;verticalAlign=middle;whiteSpace=wrap;rounded=0;" parent="1" vertex="1">
          <mxGeometry x="380.5" y="-1638" width="110" height="30" as="geometry" />
        </mxCell>
        <mxCell id="BCkx3oVRZh2mKSqZO-g1-120" value="&lt;font style=&quot;font-size: 19px;&quot;&gt;Floor 3&lt;/font&gt;" style="text;html=1;align=center;verticalAlign=middle;whiteSpace=wrap;rounded=0;" parent="1" vertex="1">
          <mxGeometry x="1530" y="-1660" width="110" height="30" as="geometry" />
        </mxCell>
        <mxCell id="BCkx3oVRZh2mKSqZO-g1-121" value="&lt;font style=&quot;font-size: 21px;&quot;&gt;Remote Filiale&lt;/font&gt;" style="text;html=1;align=center;verticalAlign=middle;whiteSpace=wrap;rounded=0;" parent="1" vertex="1">
          <mxGeometry x="1988" y="-2060" width="110" height="30" as="geometry" />
        </mxCell>
        <mxCell id="Ia4doDAOCGAujeCeCAJv-1" value="&lt;font style=&quot;font-size: 18px;&quot;&gt;Core_R10&lt;/font&gt;" style="text;html=1;align=center;verticalAlign=middle;whiteSpace=wrap;rounded=0;" vertex="1" parent="1">
          <mxGeometry x="2182.5" y="-2508.5" width="10" height="30" as="geometry" />
        </mxCell>
        <mxCell id="Ia4doDAOCGAujeCeCAJv-4" value="&lt;font style=&quot;font-size: 18px;&quot;&gt;Access_SW&lt;/font&gt;" style="text;html=1;align=center;verticalAlign=middle;whiteSpace=wrap;rounded=0;" vertex="1" parent="1">
          <mxGeometry x="2182.5" y="-2350" width="10" height="30" as="geometry" />
        </mxCell>
        <mxCell id="Ia4doDAOCGAujeCeCAJv-9" value="" style="endArrow=none;html=1;rounded=0;entryX=0;entryY=0.5;entryDx=0;entryDy=0;entryPerimeter=0;exitX=1;exitY=0.5;exitDx=0;exitDy=0;exitPerimeter=0;" edge="1" parent="1" source="BCkx3oVRZh2mKSqZO-g1-3" target="BCkx3oVRZh2mKSqZO-g1-4">
          <mxGeometry width="50" height="50" relative="1" as="geometry">
            <mxPoint x="930" y="-2110" as="sourcePoint" />
            <mxPoint x="980" y="-2160" as="targetPoint" />
          </mxGeometry>
        </mxCell>
        <mxCell id="Ia4doDAOCGAujeCeCAJv-11" value="&lt;font style=&quot;font-size: 17px;&quot;&gt;SALES&lt;/font&gt;" style="text;html=1;align=center;verticalAlign=middle;whiteSpace=wrap;rounded=0;" vertex="1" parent="1">
          <mxGeometry x="290" y="-2090" width="60" height="30" as="geometry" />
        </mxCell>
        <mxCell id="Ia4doDAOCGAujeCeCAJv-12" value="&lt;font style=&quot;font-size: 17px;&quot;&gt;HR&lt;/font&gt;" style="text;html=1;align=center;verticalAlign=middle;whiteSpace=wrap;rounded=0;" vertex="1" parent="1">
          <mxGeometry x="290" y="-1802" width="60" height="30" as="geometry" />
        </mxCell>
        <mxCell id="Ia4doDAOCGAujeCeCAJv-14" value="&lt;font style=&quot;font-size: 17px;&quot;&gt;FINANCE&lt;/font&gt;" style="text;html=1;align=center;verticalAlign=middle;whiteSpace=wrap;rounded=0;" vertex="1" parent="1">
          <mxGeometry x="888" y="-1660" width="60" height="30" as="geometry" />
        </mxCell>
        <mxCell id="Ia4doDAOCGAujeCeCAJv-15" value="&lt;font style=&quot;font-size: 17px;&quot;&gt;ORDERS&lt;/font&gt;" style="text;html=1;align=center;verticalAlign=middle;whiteSpace=wrap;rounded=0;" vertex="1" parent="1">
          <mxGeometry x="790" y="-1400" width="60" height="30" as="geometry" />
        </mxCell>
        <mxCell id="Ia4doDAOCGAujeCeCAJv-17" value="&lt;font style=&quot;font-size: 17px;&quot;&gt;LEGAL&lt;/font&gt;" style="text;html=1;align=center;verticalAlign=middle;whiteSpace=wrap;rounded=0;" vertex="1" parent="1">
          <mxGeometry x="1351" y="-2100" width="60" height="30" as="geometry" />
        </mxCell>
        <mxCell id="Ia4doDAOCGAujeCeCAJv-18" value="&lt;font style=&quot;font-size: 17px;&quot;&gt;SERVER&lt;/font&gt;" style="text;html=1;align=center;verticalAlign=middle;whiteSpace=wrap;rounded=0;" vertex="1" parent="1">
          <mxGeometry x="1311" y="-1850" width="60" height="30" as="geometry" />
        </mxCell>
      </root>
    </mxGraphModel>
  </diagram>
</mxfile>
